HIERARCHY
ROOT mPelvis
{
	OFFSET 0.000000 1.067000 -0.000000
	CHANNELS 6 Xposition Yposition Zposition Xrotation Yrotation Zrotation
	JOINT mTorso
	{
		OFFSET 0.000000 0.084000 -0.000000
		CHANNELS 3 Xrotation Yrotation Zrotation
		JOINT mChest
		{
			OFFSET 0.000000 0.205000 -0.015000
			CHANNELS 3 Xrotation Yrotation Zrotation
			JOINT mNeck
			{
				OFFSET 0.000000 0.251000 -0.010000
				CHANNELS 3 Xrotation Yrotation Zrotation
				JOINT mHead
				{
					OFFSET 0.000000 0.076000 0.000000
					CHANNELS 3 Xrotation Yrotation Zrotation
					JOINT mSkull
					{
						OFFSET 0.000000 0.079000 0.000000
						CHANNELS 3 Xrotation Yrotation Zrotation
						End Site
						{
							OFFSET -0.000000 -0.100000 0.000000
						}
					}
					JOINT mEyeRight
					{
						OFFSET -0.036000 0.079000 0.098000
						CHANNELS 3 Xrotation Yrotation Zrotation
						End Site
						{
							OFFSET -0.000000 -0.100000 0.000000
						}
					}
					JOINT mEyeLeft
					{
						OFFSET 0.036000 0.079000 0.098000
						CHANNELS 3 Xrotation Yrotation Zrotation
						End Site
						{
							OFFSET -0.000000 -0.100000 0.000000
						}
					}
					JOINT HEAD
					{
						OFFSET 0.000000 0.070000 0.020000
						CHANNELS 3 Xrotation Yrotation Zrotation
						End Site
						{
							OFFSET -0.000000 -0.100000 0.000000
						}
					}
				}
				JOINT NECK
				{
					OFFSET 0.000000 0.020000 0.000000
					CHANNELS 3 Xrotation Yrotation Zrotation
					End Site
					{
						OFFSET -0.000000 -0.100000 0.000000
					}
				}
			}
			JOINT mCollarLeft
			{
				OFFSET 0.085000 0.165000 -0.021000
				CHANNELS 3 Xrotation Yrotation Zrotation
				JOINT mShoulderLeft
				{
					OFFSET 0.079000 0.000000 -0.000000
					CHANNELS 3 Xrotation Yrotation Zrotation
					JOINT mElbowLeft
					{
						OFFSET 0.248000 0.000000 -0.000000
						CHANNELS 3 Xrotation Yrotation Zrotation
						JOINT mWristLeft
						{
							OFFSET 0.205000 0.000000 -0.000000
							CHANNELS 3 Xrotation Yrotation Zrotation
							JOINT L_HAND
							{
								OFFSET 0.050000 0.000000 0.010000
								CHANNELS 3 Xrotation Yrotation Zrotation
								End Site
								{
									OFFSET 0.000000 -0.100000 0.000000
								}
							}
						}
						JOINT L_LOWER_ARM
						{
							OFFSET 0.100000 0.000000 -0.000000
							CHANNELS 3 Xrotation Yrotation Zrotation
							End Site
							{
								OFFSET 0.000000 -0.100000 0.000000
							}
						}
					}
					JOINT L_UPPER_ARM
					{
						OFFSET 0.120000 0.010000 -0.000000
						CHANNELS 3 Xrotation Yrotation Zrotation
						End Site
						{
							OFFSET 0.000000 -0.100000 0.000000
						}
					}
				}
				JOINT L_CLAVICLE
				{
					OFFSET 0.000000 0.020000 0.020000
					CHANNELS 3 Xrotation Yrotation Zrotation
					End Site
					{
						OFFSET -0.000000 -0.100000 0.000000
					}
				}
			}
			JOINT mCollarRight
			{
				OFFSET -0.085000 0.165000 -0.021000
				CHANNELS 3 Xrotation Yrotation Zrotation
				JOINT mShoulderRight
				{
					OFFSET -0.079000 0.000000 0.000000
					CHANNELS 3 Xrotation Yrotation Zrotation
					JOINT mElbowRight
					{
						OFFSET -0.248000 0.000000 0.000000
						CHANNELS 3 Xrotation Yrotation Zrotation
						JOINT mWristRight
						{
							OFFSET -0.205000 0.000000 0.000000
							CHANNELS 3 Xrotation Yrotation Zrotation
							JOINT R_HAND
							{
								OFFSET -0.050000 0.000000 0.010000
								CHANNELS 3 Xrotation Yrotation Zrotation
								End Site
								{
									OFFSET 0.000000 -0.100000 0.000000
								}
							}
						}
						JOINT R_LOWER_ARM
						{
							OFFSET -0.100000 0.000000 0.000000
							CHANNELS 3 Xrotation Yrotation Zrotation
							End Site
							{
								OFFSET 0.000000 -0.100000 0.000000
							}
						}
					}
					JOINT R_UPPER_ARM
					{
						OFFSET -0.120000 0.010000 0.000000
						CHANNELS 3 Xrotation Yrotation Zrotation
						End Site
						{
							OFFSET 0.000000 -0.100000 0.000000
						}
					}
				}
				JOINT R_CLAVICLE
				{
					OFFSET 0.000000 0.020000 0.020000
					CHANNELS 3 Xrotation Yrotation Zrotation
					End Site
					{
						OFFSET -0.000000 -0.100000 0.000000
					}
				}
			}
			JOINT CHEST
			{
				OFFSET 0.000000 0.070000 0.028000
				CHANNELS 3 Xrotation Yrotation Zrotation
				End Site
				{
					OFFSET -0.000000 -0.100000 0.000000
				}
			}
			JOINT LEFT_PEC
			{
				OFFSET 0.082000 0.042000 0.119000
				CHANNELS 3 Xrotation Yrotation Zrotation
				End Site
				{
					OFFSET 0.000000 -0.100000 0.000000
				}
			}
			JOINT RIGHT_PEC
			{
				OFFSET -0.082000 0.042000 0.119000
				CHANNELS 3 Xrotation Yrotation Zrotation
				End Site
				{
					OFFSET 0.000000 -0.100000 0.000000
				}
			}
			JOINT UPPER_BACK
			{
				OFFSET 0.000000 0.017253 0.000000
				CHANNELS 3 Xrotation Yrotation Zrotation
				End Site
				{
					OFFSET -0.000000 -0.100000 0.000000
				}
			}
		}
		JOINT BELLY
		{
			OFFSET 0.000000 0.040000 0.028000
			CHANNELS 3 Xrotation Yrotation Zrotation
			End Site
			{
				OFFSET -0.000000 -0.100000 0.000000
			}
		}
		JOINT LOWER_BACK
		{
			OFFSET 0.000000 0.022848 -0.000000
			CHANNELS 3 Xrotation Yrotation Zrotation
			End Site
			{
				OFFSET -0.000000 -0.100000 0.000000
			}
		}
	}
	JOINT mHipRight
	{
		OFFSET -0.129000 -0.041000 0.034000
		CHANNELS 3 Xrotation Yrotation Zrotation
		JOINT mKneeRight
		{
			OFFSET 0.049000 -0.491000 -0.001000
			CHANNELS 3 Xrotation Yrotation Zrotation
			JOINT mAnkleRight
			{
				OFFSET -0.000000 -0.468000 -0.029000
				CHANNELS 3 Xrotation Yrotation Zrotation
				JOINT mFootRight
				{
					OFFSET 0.000000 -0.061000 0.112000
					CHANNELS 3 Xrotation Yrotation Zrotation
					JOINT mToeRight
					{
						OFFSET 0.000000 0.000000 0.109000
						CHANNELS 3 Xrotation Yrotation Zrotation
						End Site
						{
							OFFSET -0.000000 -0.100000 0.000000
						}
					}
				}
				JOINT R_FOOT
				{
					OFFSET 0.000000 -0.041000 0.077000
					CHANNELS 3 Xrotation Yrotation Zrotation
					End Site
					{
						OFFSET 0.000000 -0.100000 0.000000
					}
				}
			}
			JOINT R_LOWER_LEG
			{
				OFFSET -0.000000 -0.200000 -0.020000
				CHANNELS 3 Xrotation Yrotation Zrotation
				End Site
				{
					OFFSET -0.000000 -0.100000 0.000000
				}
			}
		}
		JOINT R_UPPER_LEG
		{
			OFFSET 0.050000 -0.220000 -0.020000
			CHANNELS 3 Xrotation Yrotation Zrotation
			End Site
			{
				OFFSET -0.000000 -0.100000 0.000000
			}
		}
	}
	JOINT mHipLeft
	{
		OFFSET 0.127000 -0.041000 0.034000
		CHANNELS 3 Xrotation Yrotation Zrotation
		JOINT mKneeLeft
		{
			OFFSET -0.046000 -0.491000 -0.001000
			CHANNELS 3 Xrotation Yrotation Zrotation
			JOINT mAnkleLeft
			{
				OFFSET 0.001000 -0.468000 -0.029000
				CHANNELS 3 Xrotation Yrotation Zrotation
				JOINT mFootLeft
				{
					OFFSET 0.000000 -0.061000 0.112000
					CHANNELS 3 Xrotation Yrotation Zrotation
					JOINT mToeLeft
					{
						OFFSET 0.000000 0.000000 0.109000
						CHANNELS 3 Xrotation Yrotation Zrotation
						End Site
						{
							OFFSET -0.000000 -0.100000 0.000000
						}
					}
				}
				JOINT L_FOOT
				{
					OFFSET 0.000000 -0.041000 0.077000
					CHANNELS 3 Xrotation Yrotation Zrotation
					End Site
					{
						OFFSET 0.000000 -0.100000 0.000000
					}
				}
			}
			JOINT L_LOWER_LEG
			{
				OFFSET -0.000000 -0.200000 -0.020000
				CHANNELS 3 Xrotation Yrotation Zrotation
				End Site
				{
					OFFSET -0.000000 -0.100000 0.000000
				}
			}
		}
		JOINT L_UPPER_LEG
		{
			OFFSET -0.050000 -0.220000 -0.020000
			CHANNELS 3 Xrotation Yrotation Zrotation
			End Site
			{
				OFFSET -0.000000 -0.100000 0.000000
			}
		}
	}
	JOINT PELVIS
	{
		OFFSET -0.000000 -0.020000 -0.010000
		CHANNELS 3 Xrotation Yrotation Zrotation
		End Site
		{
			OFFSET -0.000000 -0.100000 0.000000
		}
	}
	JOINT BUTT
	{
		OFFSET -0.000000 -0.100000 -0.060000
		CHANNELS 3 Xrotation Yrotation Zrotation
		End Site
		{
			OFFSET -0.000000 -0.100000 0.000000
		}
	}
}
MOTION
Frames: 4
Frame Time: 0.022222
0.000000 -20.163000 0.000001 106.055475 -4.585456 -12.546147 1.515032 -7.665045 15.412762 -9.409387 -4.400368 0.724094 -23.112040 -10.818048 15.668763 -20.523877 -27.923862 5.358107 0.000003 0.000026 -179.999991 -0.000002 0.000003 0.000001 -0.000002 0.000003 0.000001 -0.000002 0.000003 0.000001 0.000003 0.000002 -0.000000 -25.871701 24.704830 2.400244 -71.365197 -12.895474 -88.312618 -0.000001 -3.881504 -0.000001 -7.511907 6.375387 76.478427 -0.000000 0.000000 -0.000001 0.000000 -0.000000 0.000001 -0.000000 -0.000000 -0.000001 -0.000002 0.000000 -0.000000 -28.386382 37.142637 5.044343 -64.270912 10.645914 71.350328 -0.000001 3.881506 -0.000000 -7.273043 -7.252140 -73.861509 0.000000 -0.000002 0.000001 -0.000000 0.000000 -0.000000 0.000002 -0.000000 0.000000 -0.000001 0.000001 0.000000 -0.000000 -0.000003 0.000000 -0.000001 -0.000002 0.000000 -0.000001 -0.000001 0.000000 -0.000000 -0.000003 0.000000 0.000002 -0.000001 -0.000000 -0.000000 0.000000 0.000000 -101.796887 -16.388619 -2.427064 82.141713 -2.843593 -3.702001 41.700651 -3.789859 -6.731390 0.000039 0.000025 -0.000047 -0.000000 0.000002 -0.000000 0.000041 0.000025 -0.000048 -0.000002 0.000006 0.000000 -0.000000 0.000002 0.000126 -104.254860 -17.549620 7.920204 86.336118 -2.971398 -3.850711 39.416653 6.456858 0.569484 -0.000066 0.000045 -0.000078 -0.000003 0.000000 0.000000 -0.000068 0.000045 -0.000081 -0.000003 0.000001 0.000000 -0.000000 0.000002 -0.000087 -0.000002 -0.000001 0.000001 -0.000002 -0.000001 0.000001 
0.000000 -20.163000 0.000001 106.193630 -3.927387 -10.911877 1.304314 -8.413640 13.808916 -9.837971 -4.603197 0.739824 -24.924491 -11.553928 16.180558 -22.468710 -29.237072 5.098228 0.000002 0.000022 -179.999991 -0.000002 0.000000 -0.000000 -0.000002 0.000000 -0.000000 -0.000002 0.000000 -0.000000 0.000004 0.000002 -0.000000 -25.794315 25.368835 2.408266 -71.365204 -12.895474 -88.312611 -0.000001 -3.881503 0.000000 -7.507344 6.440598 76.202529 -0.000000 0.000001 -0.000000 0.000000 -0.000000 -0.000001 -0.000000 0.000000 0.000000 0.000000 0.000000 0.000000 -27.987192 37.656575 4.889542 -64.270912 10.645914 71.350328 -0.000004 3.881504 -0.000000 -7.358322 -7.014757 -75.281717 0.000000 0.000002 0.000003 0.000002 -0.000000 -0.000000 -0.000002 0.000000 -0.000000 -0.000001 -0.000002 0.000000 -0.000000 -0.000002 0.000000 -0.000001 -0.000003 0.000000 -0.000001 -0.000001 0.000000 -0.000000 -0.000000 0.000000 0.000000 0.000000 -0.000000 0.000001 -0.000000 0.000000 -102.762614 -14.676936 -3.029504 82.994920 -2.895526 -3.712085 43.605912 -4.072068 -6.959122 0.000044 0.000016 -0.000029 0.000003 0.000001 0.000000 0.000046 0.000017 -0.000029 -0.000001 0.000004 0.000000 0.000000 0.000002 0.000130 -103.948212 -15.810906 7.490215 85.876802 -2.943288 -3.846045 41.232807 6.748840 0.487516 -0.000068 0.000044 -0.000073 0.000004 0.000001 -0.000001 -0.000067 0.000044 -0.000077 -0.000002 0.000002 0.000000 -0.000000 0.000003 -0.000091 -0.000001 0.000000 -0.000001 -0.000001 0.000000 -0.000001 
0.000000 -20.163000 0.000001 106.322966 -3.190149 -9.095403 1.052551 -9.171941 12.009882 -10.254678 -4.800481 0.753661 -26.677006 -12.280949 16.654334 -24.380849 -30.499134 4.794536 0.000000 0.000025 -179.999991 -0.000002 0.000003 0.000001 -0.000002 0.000003 0.000001 -0.000002 0.000003 0.000001 0.000001 0.000001 -0.000002 -25.693884 25.979835 2.402889 -71.365197 -12.895473 -88.312618 -0.000001 -3.881503 0.000000 -7.495807 6.505277 75.895279 0.000000 -0.000000 -0.000000 -0.000001 -0.000000 0.000001 -0.000000 -0.000000 0.000000 -0.000000 0.000000 0.000001 -27.528891 38.121263 4.704024 -64.270919 10.645916 71.350328 -0.000002 3.881504 -0.000000 -7.433280 -6.764918 -76.651982 0.000001 -0.000000 -0.000000 -0.000001 -0.000000 -0.000000 0.000000 -0.000000 -0.000000 -0.000001 0.000003 0.000001 -0.000000 0.000001 -0.000000 -0.000000 0.000001 0.000000 -0.000000 0.000001 -0.000000 -0.000000 0.000001 -0.000000 -0.000002 0.000001 -0.000001 -0.000003 0.000001 -0.000000 -103.605254 -12.757631 -3.628385 83.747811 -2.941473 -3.720339 45.450818 -4.352448 -7.170679 0.000040 0.000009 -0.000020 0.000001 0.000000 -0.000000 0.000041 0.000012 -0.000018 -0.000001 0.000004 0.000000 -0.000001 0.000002 0.000131 -103.593670 -13.876514 7.003933 85.366798 -2.912120 -3.840597 42.994135 7.029168 0.399189 -0.000056 0.000037 -0.000064 -0.000001 0.000001 0.000000 -0.000055 0.000036 -0.000066 -0.000002 0.000002 0.000000 0.000000 0.000001 -0.000092 -0.000001 0.000000 -0.000000 -0.000001 0.000000 -0.000000 
0.000000 -20.163000 0.000001 106.434722 -2.387896 -7.132494 0.759823 -9.929615 10.050032 -10.657675 -4.991337 0.765675 -28.362343 -12.993641 17.089786 -26.250937 -31.703696 4.452176 0.000000 0.000023 -179.999991 -0.000001 -0.000001 0.000001 -0.000001 -0.000001 0.000001 -0.000001 -0.000001 0.000001 0.000003 0.000004 0.000000 -25.572307 26.539545 2.385031 -71.365197 -12.895476 -88.312618 -0.000000 -3.881504 -0.000001 -7.478156 6.568918 75.562861 0.000000 -0.000002 0.000000 -0.000001 0.000000 0.000000 0.000000 -0.000000 -0.000001 0.000000 -0.000001 -0.000000 -27.021039 38.538793 4.491568 -64.270919 10.645915 71.350328 -0.000003 3.881505 -0.000000 -7.497832 -6.506224 -77.967743 -0.000000 -0.000001 -0.000002 0.000000 -0.000000 0.000000 0.000000 0.000000 -0.000000 -0.000002 0.000001 0.000001 -0.000000 0.000000 -0.000000 -0.000000 0.000001 -0.000000 -0.000000 0.000000 -0.000000 -0.000000 0.000000 -0.000000 0.000002 0.000001 0.000000 0.000003 0.000001 0.000000 -104.327854 -10.670636 -4.217133 84.406583 -2.981763 -3.727066 47.227118 -4.628741 -7.365821 0.000041 -0.000000 -0.000003 0.000004 0.000000 -0.000000 0.000042 0.000002 -0.000003 -0.000001 0.000004 0.000000 -0.000000 0.000002 0.000133 -103.193947 -11.785383 6.467813 84.816237 -2.878529 -3.834408 44.692602 7.296588 0.305861 -0.000056 0.000033 -0.000059 0.000002 0.000000 0.000000 -0.000056 0.000032 -0.000060 -0.000002 0.000002 0.000000 0.000000 0.000002 -0.000094 -0.000002 0.000000 0.000000 -0.000002 0.000000 0.000000 
